<svg width="24" height="24" viewBox="0 0 24 24" fill="none" xmlns="http://www.w3.org/2000/svg">
<path d="M14.3571 12C14.3571 13.3018 13.3018 14.3571 12 14.3571C10.6982 14.3571 9.64286 13.3018 9.64286 12C9.64286 10.6982 10.6982 9.64286 12 9.64286C13.3018 9.64286 14.3571 10.6982 14.3571 12ZM12 0.5C17.5936 0.5 22.2552 4.49406 23.2871 9.78572H17.1917C16.3311 7.77048 14.3312 6.35714 12 6.35714C9.66883 6.35714 7.66892 7.77048 6.80831 9.78572H0.71289C1.74479 4.49406 6.40636 0.5 12 0.5ZM12 23.5C6.40636 23.5 1.74479 19.5059 0.71289 14.2143H6.80831C7.66892 16.2295 9.66883 17.6429 12 17.6429C14.3312 17.6429 16.3311 16.2295 17.1917 14.2143H23.2871C22.2552 19.5059 17.5936 23.5 12 23.5Z" fill="#212121" stroke="black"/>
</svg>
